<?xml version="1.0" encoding="UTF-8"?>
<!DOCTYPE svg PUBLIC "-//W3C//DTD SVG 1.1//EN" "http://www.w3.org/Graphics/SVG/1.1/DTD/svg11.dtd">
<!-- Creator: CorelDRAW 2020 (64-Bit) -->
<svg xmlns="http://www.w3.org/2000/svg" xml:space="preserve" width="52.9167mm" height="15.875mm" version="1.1" style="shape-rendering:geometricPrecision; text-rendering:geometricPrecision; image-rendering:optimizeQuality; fill-rule:evenodd; clip-rule:evenodd"
viewBox="0 0 20.837 6.251"
 xmlns:xlink="http://www.w3.org/1999/xlink"
 xmlns:xodm="http://www.corel.com/coreldraw/odm/2003">
 <defs>
  <style type="text/css">
   <![CDATA[
    .fil0 {fill:#035096;fill-rule:nonzero}
    .fil1 {fill:#333333;fill-rule:nonzero}
   ]]>
  </style>
 </defs>
 <g id="Capa_x0020_1">
  <metadata id="CorelCorpID_0Corel-Layer"/>
  <g id="_2022769252640">
   <g>
    <path class="fil0" d="M5.075 1.492c0.094,-0.219 0.232,-0.391 0.413,-0.516 0.181,-0.124 0.385,-0.186 0.611,-0.186l1.673 0 -1.05 2.447c-0.085,0.198 -0.215,0.357 -0.39,0.476 -0.448,0.306 -1.598,0.177 -2.12,0.105l0.244 -0.569c0.442,0.051 0.848,0.05 1.289,0.05 0.045,0 0.089,-0.014 0.131,-0.042 0.042,-0.028 0.072,-0.064 0.091,-0.106l0.091 -0.211c-0.095,0.018 -0.19,0.032 -0.286,0.044 -0.083,0.012 -0.171,0.022 -0.264,0.031 -0.093,0.009 -0.178,0.013 -0.257,0.013l-0.158 0c-0.205,0 -0.343,-0.06 -0.416,-0.18 -0.072,-0.12 -0.065,-0.279 0.02,-0.478l0.376 -0.878zm0.455 0.782c-0.019,0.043 -0.019,0.08 -0.001,0.109 0.018,0.028 0.049,0.043 0.095,0.043 0.24,0 0.434,0.007 0.671,-0.037l0.432 -1.008 -0.633 0c-0.12,0 -0.206,0.058 -0.255,0.174l-0.308 0.718z"/>
    <path class="fil0" d="M14.305 3.159c-0.205,0 -0.343,-0.06 -0.416,-0.18 -0.193,-0.321 0.227,-0.97 0.495,-1.154 0.175,-0.12 0.365,-0.18 0.57,-0.18l0.927 0 0.072 -0.168c0.035,-0.081 -0,-0.148 -0.095,-0.148 -0.421,0 -0.837,0.048 -1.241,0.048l0.232 -0.542c0.52,-0.073 1.004,-0.077 1.525,-0.077 0.205,0 0.343,0.06 0.416,0.179 0.072,0.119 0.066,0.278 -0.019,0.475l-0.73 1.702 -0.701 0 0.049 -0.219c-0.197,0.099 -0.396,0.167 -0.61,0.222 -0.171,0.044 -0.303,0.042 -0.474,0.042zm1.228 -0.702l0.113 -0.263 -0.656 0c-0.095,0 -0.188,0.07 -0.224,0.154 -0.021,0.048 -0.051,0.103 -0.021,0.154 0.07,0.116 0.659,-0.011 0.787,-0.044z"/>
    <path class="fil0" d="M7.773 3.159c-0.205,0 -0.343,-0.06 -0.416,-0.18 -0.193,-0.321 0.227,-0.97 0.495,-1.154 0.175,-0.12 0.365,-0.18 0.57,-0.18l0.927 0 0.072 -0.168c0.035,-0.081 -0,-0.148 -0.095,-0.148 -0.421,0 -0.837,0.048 -1.241,0.048l0.232 -0.542c0.52,-0.073 1.004,-0.077 1.525,-0.077 0.205,0 0.344,0.06 0.416,0.179 0.072,0.119 0.066,0.278 -0.019,0.475l-0.73 1.702 -0.701 0 0.049 -0.219c-0.197,0.098 -0.396,0.167 -0.61,0.222 -0.171,0.044 -0.303,0.042 -0.474,0.042zm1.228 -0.702l0.113 -0.263 -0.655 0c-0.096,0 -0.188,0.07 -0.224,0.154 -0.021,0.048 -0.051,0.103 -0.021,0.154 0.071,0.118 0.674,-0.015 0.787,-0.044z"/>
    <polygon class="fil0" points="12.798,2.194 13.807,0.79 14.666,0.79 12.923,3.115 12.086,3.115 12.237,1.711 11.182,3.115 10.346,3.115 10.597,0.79 11.456,0.79 11.261,2.194 12.27,0.79 12.993,0.79 "/>
    <path class="fil0" d="M4.932 0.877l-0.96 2.238 -0.791 0 0.706 -1.645 -0.339 0 0.254 -0.592 1.13 0zm-0.415 -0.877l0.791 0 -0.264 0.614 -0.791 0 0.263 -0.614z"/>
    <path class="fil0" d="M0.614 3.146c-0.295,0 -0.484,-0.067 -0.565,-0.201 -0.081,-0.134 -0.061,-0.344 0.062,-0.629l0.6 -1.398c0.131,-0.306 0.298,-0.528 0.5,-0.666 0.202,-0.138 0.462,-0.208 0.778,-0.208l1.627 0 -0.263 0.614 -1.447 0c-0.181,0 -0.309,0.087 -0.384,0.262l-0.599 1.397c-0.029,0.067 -0.031,0.121 -0.007,0.159 0.024,0.039 0.07,0.059 0.14,0.059 0.316,0 0.633,0 0.949,0l0.279 -0.649 -0.588 0 0.73 -0.527 0.898 0 -0.725 1.691c-0.643,0.083 -1.337,0.094 -1.984,0.094z"/>
    <path class="fil0" d="M20.272 0.79l0.565 0 -0.254 0.592 -0.565 0 -0.433 1.009c-0.019,0.044 -0.019,0.08 -0.002,0.11 0.018,0.029 0.049,0.044 0.094,0.044l0.588 0 -0.246 0.573c-0.092,0.012 -0.187,0.018 -0.283,0.018 -0.087,0.013 -0.182,0.02 -0.284,0.02 -0.102,0 -0.205,0 -0.307,0 -0.205,0 -0.344,-0.06 -0.416,-0.179 -0.072,-0.12 -0.066,-0.279 0.019,-0.477l0.479 -1.116 -0.271 0 0.254 -0.592 0.271 0 0.315 -0.524 0.701 0 -0.225 0.524z"/>
    <path class="fil0" d="M18.373 0.79l0.565 0 -0.254 0.592 -0.565 0 -0.433 1.009c-0.019,0.044 -0.019,0.08 -0.002,0.11 0.018,0.029 0.049,0.044 0.094,0.044l0.588 0 -0.246 0.573c-0.092,0.012 -0.187,0.018 -0.283,0.018 -0.087,0.013 -0.182,0.02 -0.284,0.02 -0.102,0 -0.205,0 -0.307,0 -0.205,0 -0.343,-0.06 -0.416,-0.179 -0.072,-0.12 -0.066,-0.279 0.019,-0.477l0.479 -1.116 -0.271 0 0.254 -0.592 0.271 0 0.315 -0.524 0.701 0 -0.225 0.524z"/>
   </g>
   <path class="fil1" d="M0.294 5.49l0.097 0c0.091,0 0.158,-0.018 0.203,-0.054 0.045,-0.036 0.067,-0.088 0.067,-0.156 0,-0.069 -0.019,-0.12 -0.056,-0.153 -0.038,-0.033 -0.097,-0.049 -0.177,-0.049l-0.134 0 0 0.412zm0.665 -0.22c0,0.149 -0.047,0.264 -0.14,0.343 -0.093,0.079 -0.226,0.119 -0.398,0.119l-0.126 0 0 0.494 -0.294 0 0 -1.389 0.444 0c0.169,0 0.297,0.036 0.384,0.109 0.088,0.073 0.131,0.181 0.131,0.325zm1.523 0.26c0,0.23 -0.057,0.407 -0.171,0.53 -0.114,0.123 -0.278,0.185 -0.49,0.185 -0.213,0 -0.376,-0.062 -0.49,-0.185 -0.114,-0.124 -0.171,-0.301 -0.171,-0.532 0,-0.231 0.057,-0.408 0.171,-0.53 0.114,-0.122 0.278,-0.183 0.492,-0.183 0.213,0 0.377,0.061 0.49,0.184 0.113,0.123 0.17,0.3 0.17,0.53zm-1.013 0c0,0.155 0.029,0.272 0.088,0.351 0.059,0.078 0.147,0.118 0.264,0.118 0.235,0 0.352,-0.156 0.352,-0.468 0,-0.313 -0.117,-0.469 -0.35,-0.469 -0.117,0 -0.206,0.04 -0.265,0.118 -0.059,0.079 -0.089,0.196 -0.089,0.351zm2.654 0.696l-0.335 0 -0.188 -0.73c-0.007,-0.026 -0.019,-0.079 -0.036,-0.161 -0.017,-0.081 -0.026,-0.136 -0.029,-0.164 -0.004,0.034 -0.013,0.089 -0.029,0.165 -0.015,0.076 -0.027,0.13 -0.035,0.162l-0.187 0.728 -0.334 0 -0.354 -1.389 0.29 0 0.178 0.758c0.031,0.14 0.053,0.261 0.067,0.364 0.004,-0.036 0.012,-0.092 0.026,-0.168 0.014,-0.076 0.027,-0.135 0.039,-0.176l0.202 -0.778 0.278 0 0.202 0.778c0.009,0.035 0.02,0.088 0.033,0.159 0.013,0.072 0.023,0.133 0.03,0.185 0.006,-0.05 0.017,-0.111 0.031,-0.185 0.014,-0.074 0.027,-0.134 0.038,-0.179l0.177 -0.758 0.29 0 -0.353 1.389zm1.328 0l-0.8 0 0 -1.389 0.8 0 0 0.241 -0.506 0 0 0.305 0.47 0 0 0.241 -0.47 0 0 0.358 0.506 0 0 0.243zm0.584 -0.772l0.095 0c0.093,0 0.162,-0.016 0.206,-0.047 0.044,-0.031 0.066,-0.08 0.066,-0.146 0,-0.066 -0.023,-0.113 -0.068,-0.141 -0.045,-0.028 -0.115,-0.042 -0.21,-0.042l-0.089 0 0 0.375zm0 0.239l0 0.533 -0.294 0 0 -1.389 0.405 0c0.189,0 0.328,0.034 0.419,0.103 0.091,0.069 0.136,0.173 0.136,0.313 0,0.082 -0.022,0.154 -0.068,0.218 -0.045,0.064 -0.108,0.113 -0.191,0.15 0.209,0.312 0.345,0.514 0.408,0.605l-0.327 0 -0.331 -0.533 -0.157 0zm2.316 0.148c0,0.125 -0.045,0.224 -0.136,0.296 -0.09,0.072 -0.216,0.108 -0.377,0.108 -0.148,0 -0.279,-0.028 -0.393,-0.084l0 -0.274c0.094,0.042 0.173,0.071 0.238,0.089 0.065,0.017 0.124,0.026 0.178,0.026 0.065,0 0.114,-0.012 0.149,-0.037 0.035,-0.025 0.052,-0.062 0.052,-0.11 0,-0.027 -0.008,-0.052 -0.023,-0.073 -0.015,-0.021 -0.038,-0.042 -0.067,-0.061 -0.029,-0.02 -0.09,-0.051 -0.18,-0.094 -0.085,-0.04 -0.149,-0.078 -0.191,-0.115 -0.042,-0.037 -0.076,-0.079 -0.101,-0.128 -0.026,-0.049 -0.038,-0.106 -0.038,-0.171 0,-0.123 0.042,-0.22 0.125,-0.29 0.083,-0.07 0.198,-0.105 0.345,-0.105 0.072,0 0.141,0.008 0.207,0.026 0.066,0.017 0.134,0.041 0.206,0.072l-0.095 0.229c-0.074,-0.03 -0.136,-0.051 -0.184,-0.064 -0.049,-0.012 -0.096,-0.018 -0.143,-0.018 -0.056,0 -0.099,0.013 -0.128,0.039 -0.03,0.026 -0.045,0.06 -0.045,0.102 0,0.026 0.006,0.049 0.018,0.068 0.012,0.019 0.031,0.038 0.057,0.056 0.026,0.018 0.089,0.051 0.187,0.097 0.13,0.062 0.219,0.125 0.267,0.187 0.048,0.062 0.072,0.139 0.072,0.229zm0.683 -0.432l0.29 -0.572 0.317 0 -0.461 0.848 0 0.54 -0.292 0 0 -0.531 -0.461 -0.858 0.319 0 0.288 0.572zm1.602 0.432c0,0.125 -0.045,0.224 -0.136,0.296 -0.09,0.072 -0.216,0.108 -0.377,0.108 -0.148,0 -0.279,-0.028 -0.393,-0.084l0 -0.274c0.094,0.042 0.173,0.071 0.238,0.089 0.065,0.017 0.124,0.026 0.178,0.026 0.065,0 0.114,-0.012 0.149,-0.037 0.035,-0.025 0.052,-0.062 0.052,-0.11 0,-0.027 -0.008,-0.052 -0.023,-0.073 -0.015,-0.021 -0.038,-0.042 -0.067,-0.061 -0.029,-0.02 -0.09,-0.051 -0.18,-0.094 -0.085,-0.04 -0.149,-0.078 -0.191,-0.115 -0.042,-0.037 -0.076,-0.079 -0.101,-0.128 -0.026,-0.049 -0.038,-0.106 -0.038,-0.171 0,-0.123 0.042,-0.22 0.125,-0.29 0.083,-0.07 0.198,-0.105 0.345,-0.105 0.072,0 0.141,0.008 0.207,0.026 0.066,0.017 0.134,0.041 0.206,0.072l-0.095 0.229c-0.074,-0.03 -0.136,-0.051 -0.184,-0.064 -0.049,-0.012 -0.096,-0.018 -0.143,-0.018 -0.056,0 -0.099,0.013 -0.128,0.039 -0.03,0.026 -0.045,0.06 -0.045,0.102 0,0.026 0.006,0.049 0.018,0.068 0.012,0.019 0.031,0.038 0.057,0.056 0.026,0.018 0.089,0.051 0.187,0.097 0.13,0.062 0.219,0.125 0.267,0.187 0.048,0.062 0.072,0.139 0.072,0.229zm0.787 0.385l-0.294 0 0 -1.144 -0.377 0 0 -0.245 1.049 0 0 0.245 -0.377 0 0 1.144zm1.391 0l-0.8 0 0 -1.389 0.8 0 0 0.241 -0.505 0 0 0.305 0.47 0 0 0.241 -0.47 0 0 0.358 0.505 0 0 0.243zm0.878 0l-0.335 -1.09 -0.008 0c0.012,0.222 0.018,0.37 0.018,0.443l0 0.646 -0.263 0 0 -1.389 0.401 0 0.328 1.062 0.006 0 0.349 -1.062 0.401 0 0 1.389 -0.275 0 0 -0.658c0,-0.031 0.001,-0.067 0.002,-0.107 0.001,-0.041 0.005,-0.148 0.013,-0.323l-0.008 0 -0.358 1.088 -0.27 0zm2.066 -0.385c0,0.125 -0.045,0.224 -0.136,0.296 -0.09,0.072 -0.216,0.108 -0.377,0.108 -0.148,0 -0.28,-0.028 -0.393,-0.084l0 -0.274c0.094,0.042 0.173,0.071 0.238,0.089 0.065,0.017 0.124,0.026 0.178,0.026 0.065,0 0.114,-0.012 0.149,-0.037 0.035,-0.025 0.052,-0.062 0.052,-0.11 0,-0.027 -0.007,-0.052 -0.023,-0.073 -0.015,-0.021 -0.038,-0.042 -0.067,-0.061 -0.029,-0.02 -0.09,-0.051 -0.18,-0.094 -0.085,-0.04 -0.149,-0.078 -0.191,-0.115 -0.043,-0.037 -0.076,-0.079 -0.101,-0.128 -0.026,-0.049 -0.038,-0.106 -0.038,-0.171 0,-0.123 0.042,-0.22 0.125,-0.29 0.083,-0.07 0.198,-0.105 0.345,-0.105 0.072,0 0.141,0.008 0.207,0.026 0.066,0.017 0.134,0.041 0.206,0.072l-0.095 0.229c-0.074,-0.03 -0.136,-0.051 -0.184,-0.064 -0.049,-0.012 -0.096,-0.018 -0.143,-0.018 -0.056,0 -0.099,0.013 -0.128,0.039 -0.03,0.026 -0.045,0.06 -0.045,0.102 0,0.026 0.006,0.049 0.018,0.068 0.012,0.019 0.031,0.038 0.057,0.056 0.026,0.018 0.089,0.051 0.187,0.097 0.13,0.062 0.219,0.125 0.267,0.187 0.048,0.062 0.072,0.139 0.072,0.229zm1.577 0c0,0.125 -0.045,0.224 -0.136,0.296 -0.09,0.072 -0.216,0.108 -0.377,0.108 -0.148,0 -0.28,-0.028 -0.393,-0.084l0 -0.274c0.094,0.042 0.173,0.071 0.238,0.089 0.065,0.017 0.124,0.026 0.178,0.026 0.065,0 0.114,-0.012 0.149,-0.037 0.035,-0.025 0.052,-0.062 0.052,-0.11 0,-0.027 -0.008,-0.052 -0.023,-0.073 -0.015,-0.021 -0.038,-0.042 -0.067,-0.061 -0.029,-0.02 -0.09,-0.051 -0.18,-0.094 -0.085,-0.04 -0.149,-0.078 -0.191,-0.115 -0.042,-0.037 -0.076,-0.079 -0.101,-0.128 -0.026,-0.049 -0.038,-0.106 -0.038,-0.171 0,-0.123 0.042,-0.22 0.125,-0.29 0.083,-0.07 0.198,-0.105 0.345,-0.105 0.072,0 0.141,0.008 0.207,0.026 0.066,0.017 0.134,0.041 0.206,0.072l-0.095 0.229c-0.074,-0.03 -0.136,-0.051 -0.184,-0.064 -0.049,-0.012 -0.096,-0.018 -0.143,-0.018 -0.056,0 -0.099,0.013 -0.128,0.039 -0.03,0.026 -0.045,0.06 -0.045,0.102 0,0.026 0.006,0.049 0.018,0.068 0.012,0.019 0.031,0.038 0.057,0.056 0.026,0.018 0.089,0.051 0.187,0.097 0.13,0.062 0.219,0.125 0.267,0.187 0.048,0.062 0.072,0.139 0.072,0.229zm0.188 0.249c0,-0.053 0.014,-0.093 0.043,-0.121 0.029,-0.027 0.07,-0.041 0.124,-0.041 0.053,0 0.093,0.014 0.122,0.042 0.029,0.028 0.043,0.068 0.043,0.12 0,0.05 -0.015,0.09 -0.044,0.118 -0.029,0.029 -0.069,0.043 -0.122,0.043 -0.053,0 -0.094,-0.014 -0.123,-0.042 -0.029,-0.028 -0.044,-0.068 -0.044,-0.119zm0.913 -0.636l0.095 0c0.093,0 0.162,-0.016 0.206,-0.047 0.044,-0.031 0.066,-0.08 0.066,-0.146 0,-0.066 -0.023,-0.113 -0.068,-0.141 -0.045,-0.028 -0.115,-0.042 -0.21,-0.042l-0.089 0 0 0.375zm0 0.239l0 0.533 -0.294 0 0 -1.389 0.405 0c0.189,0 0.328,0.034 0.419,0.103 0.091,0.069 0.136,0.173 0.136,0.313 0,0.082 -0.022,0.154 -0.067,0.218 -0.045,0.064 -0.108,0.113 -0.191,0.15 0.209,0.312 0.345,0.514 0.408,0.605l-0.327 0 -0.331 -0.533 -0.157 0zm0.926 0.397c0,-0.053 0.014,-0.093 0.043,-0.121 0.029,-0.027 0.07,-0.041 0.124,-0.041 0.053,0 0.093,0.014 0.122,0.042 0.029,0.028 0.043,0.068 0.043,0.12 0,0.05 -0.015,0.09 -0.044,0.118 -0.029,0.029 -0.069,0.043 -0.122,0.043 -0.053,0 -0.094,-0.014 -0.123,-0.042 -0.029,-0.028 -0.044,-0.068 -0.044,-0.119zm0.618 0.136l0 -1.389 0.294 0 0 1.146 0.564 0 0 0.243 -0.858 0z"/>
  </g>
 </g>
</svg>
